<svg t="1624498929755" class="icon" viewBox="0 0 1024 1024" version="1.1" xmlns="http://www.w3.org/2000/svg" p-id="4636" width="200" height="200"><path d="M548.864 741.76v131.264h201.152c9.792 0 17.856 3.072 24.128 9.216a31.616 31.616 0 0 1 9.408 23.616c0 9.6-3.136 17.408-9.408 23.616a33.024 33.024 0 0 1-24.128 9.216H280.704a33.024 33.024 0 0 1-24.128-9.216 31.616 31.616 0 0 1-9.408-23.68c0-9.536 3.2-17.408 9.408-23.552a33.024 33.024 0 0 1 24.128-9.216h201.152V741.76H180.16c-37.76-0.64-69.376-13.504-94.848-38.464a128.448 128.448 0 0 1-39.296-92.8V216.576c0.704-36.928 13.824-67.84 39.296-92.8 25.536-24.96 57.088-37.76 94.848-38.528H850.56c37.76 0.64 69.312 13.504 94.784 38.464 25.472 24.96 38.592 55.936 39.296 92.8v393.856a128.192 128.192 0 0 1-39.296 92.8c-25.472 24.96-57.088 37.76-94.784 38.528H548.864zM180.16 150.976c-18.88 0.64-34.56 7.168-47.168 19.52-12.544 12.288-19.2 27.648-19.904 46.08v393.856c0.64 18.496 7.296 33.92 19.904 46.144 12.608 12.352 28.288 18.816 47.168 19.52H850.56c18.816-0.64 34.56-7.168 47.104-19.52 12.544-12.288 19.2-27.648 19.904-46.08V216.576a65.536 65.536 0 0 0-19.84-46.144 68.608 68.608 0 0 0-47.168-19.52H180.16z" fill="#cdcdcd" p-id="4637"></path></svg>